<?xml version="1.0" standalone="no"?>
<!DOCTYPE svg PUBLIC "-//W3C//DTD SVG 20010904//EN"
 "http://www.w3.org/TR/2001/REC-SVG-20010904/DTD/svg10.dtd">
<svg version="1.0" xmlns="http://www.w3.org/2000/svg"
 width="960.000000pt" height="960.000000pt" viewBox="0 0 960.000000 960.000000"
 preserveAspectRatio="xMidYMid meet">

<g transform="translate(0.000000,960.000000) scale(0.100000,-0.100000)"
fill="#000000" stroke="none">
<path d="M0 4805 l0 -4795 4800 0 4800 0 0 4795 0 4795 -4800 0 -4800 0 0
-4795z m7574 1824 c43 -34 34 -53 -56 -114 l-83 -55 41 0 c26 0 47 -6 55 -17
19 -22 28 -818 10 -852 -11 -19 -20 -21 -99 -21 -55 0 -92 4 -100 12 -19 19
-17 854 1 865 8 4 46 52 85 106 79 106 96 115 146 76z m-2579 -163 c106 -28
205 -84 205 -116 0 -22 -103 -110 -130 -110 -10 0 -40 11 -67 24 -136 69 -292
52 -413 -44 -84 -66 -115 -198 -69 -295 74 -157 308 -223 484 -136 74 37 72
37 157 -33 54 -44 50 -68 -14 -106 -203 -117 -503 -102 -683 35 -98 73 -170
194 -181 301 -24 234 174 451 450 495 64 10 197 2 261 -15z m-3306 -43 c14
-48 14 -89 1 -114 -10 -17 -22 -19 -133 -19 -82 0 -127 -4 -135 -12 -9 -9 -12
-100 -12 -348 0 -248 -3 -339 -12 -348 -13 -13 -153 -17 -182 -6 -14 5 -16 45
-16 344 0 294 -2 341 -16 354 -12 13 -40 16 -134 16 -137 0 -140 2 -140 89 0
85 -20 81 400 81 l369 0 10 -37z m593 20 c8 -10 25 -43 38 -73 23 -56 218
-501 291 -666 57 -128 54 -134 -64 -134 -51 0 -97 4 -104 8 -7 4 -27 43 -45
87 l-34 80 -189 0 -189 0 -13 -25 c-7 -14 -26 -52 -41 -85 l-27 -60 -96 -3
c-137 -4 -137 -6 -59 171 34 78 77 176 95 217 18 41 49 111 68 155 19 44 59
134 87 200 29 66 60 126 68 133 10 7 49 12 107 12 75 0 95 -3 107 -17z m1069
7 c112 -21 216 -92 259 -176 34 -68 39 -171 12 -234 -26 -61 -99 -132 -170
-166 -51 -25 -71 -28 -202 -33 -80 -4 -151 -10 -157 -14 -9 -6 -13 -42 -13
-121 0 -74 -4 -116 -12 -124 -7 -7 -44 -12 -98 -12 -54 0 -91 5 -98 12 -17 17
-17 849 0 866 15 15 400 17 479 2z m700 0 c18 -10 19 -26 19 -433 0 -316 -3
-426 -12 -435 -17 -17 -184 -16 -195 1 -4 6 -9 199 -9 427 -1 360 0 417 14
433 12 13 31 17 89 17 41 0 83 -5 94 -10z m2063 -6 c18 -18 22 -104 6 -135
-10 -18 -24 -19 -238 -19 -164 0 -231 -3 -240 -12 -7 -7 -12 -41 -12 -83 0
-42 5 -76 12 -83 8 -8 58 -12 158 -12 178 0 190 -5 190 -81 0 -90 2 -89 -178
-89 -110 0 -162 -4 -170 -12 -13 -13 -17 -145 -4 -165 5 -9 73 -13 240 -15
262 -3 252 0 252 -81 0 -93 26 -87 -360 -87 -331 0 -340 1 -350 20 -8 14 -10
151 -8 436 3 356 5 416 18 424 9 6 154 10 342 10 284 0 329 -2 342 -16z m729
1 c111 -29 195 -88 245 -174 22 -38 27 -57 27 -121 0 -92 -30 -156 -99 -217
l-46 -40 57 -124 c31 -68 56 -140 57 -159 l1 -35 -96 -3 c-69 -2 -99 1 -106
10 -5 7 -31 63 -57 123 -27 61 -55 115 -62 121 -8 6 -52 12 -98 13 -114 3
-116 0 -116 -138 0 -70 -4 -111 -12 -119 -13 -13 -153 -17 -182 -6 -14 5 -16
53 -16 433 0 319 3 430 12 439 19 19 417 16 491 -3z m1498 -2 c18 -22 15 -15
210 -461 87 -200 159 -372 159 -382 0 -26 -27 -32 -125 -28 l-80 3 -25 50
c-14 28 -32 66 -40 85 l-15 35 -190 0 -190 0 -22 -50 c-13 -27 -31 -66 -40
-85 l-18 -35 -95 -3 c-78 -2 -97 0 -107 13 -13 18 -14 15 125 330 39 88 107
243 151 344 45 102 87 189 94 193 6 4 53 8 103 8 75 0 94 -3 105 -17z m-5450
-1032 c33 -34 30 -55 -10 -75 -14 -8 -61 -39 -104 -70 -43 -31 -83 -56 -88
-56 -30 0 -14 38 53 130 82 112 99 120 149 71z m4231 -216 c80 -17 223 -81
252 -114 14 -15 17 -26 10 -40 -11 -23 -130 -121 -147 -121 -7 0 -35 12 -62
27 -149 79 -335 71 -471 -22 -54 -38 -79 -66 -115 -135 -33 -65 -32 -167 3
-235 46 -89 142 -162 253 -191 105 -28 260 -7 333 45 17 12 40 21 52 21 29 0
160 -107 160 -130 0 -62 -259 -160 -425 -160 -205 1 -369 64 -501 195 -287
283 -152 709 266 843 36 12 76 23 90 25 63 11 235 6 302 -8z m-5916 -23 c10
-6 155 -191 379 -481 50 -65 75 -91 91 -91 12 0 25 7 28 16 3 9 6 134 6 279 0
309 -11 285 126 285 136 0 124 52 124 -523 0 -455 -1 -491 -17 -503 -12 -9
-52 -13 -124 -14 -97 0 -107 2 -126 23 -24 25 -121 151 -303 391 -108 143
-128 165 -150 163 l-25 -2 -3 -275 c-2 -244 -4 -276 -19 -287 -21 -16 -186
-18 -214 -3 -18 10 -19 27 -19 510 0 465 1 500 18 509 19 12 211 14 228 3z
m1686 -9 c8 -10 45 -88 82 -173 38 -85 83 -190 102 -232 53 -122 103 -236 139
-318 18 -41 49 -112 69 -156 59 -134 53 -144 -89 -144 -120 0 -120 0 -165 110
-17 40 -35 79 -41 87 -9 10 -59 13 -225 13 -245 0 -219 10 -269 -110 -41 -100
-42 -100 -157 -100 -84 0 -101 3 -118 20 -22 22 -23 16 37 150 12 25 98 223
193 440 95 217 179 403 188 413 13 14 33 17 127 17 94 0 114 -3 127 -17z m832
1 c14 -13 16 -59 16 -345 0 -310 1 -332 20 -369 27 -53 92 -90 170 -97 51 -5
67 -2 115 21 35 17 65 41 80 64 l25 37 0 337 c0 293 2 339 16 352 20 21 191
23 218 3 16 -11 17 -40 14 -377 l-3 -365 -28 -53 c-114 -217 -431 -297 -669
-170 -77 41 -160 131 -187 203 -20 53 -21 76 -21 405 0 322 1 350 18 359 9 6
58 11 109 11 70 0 95 -4 107 -16z m1828 -1 c14 -12 18 -31 18 -80 0 -98 -8
-103 -178 -103 -94 0 -142 -4 -150 -12 -9 -9 -12 -114 -12 -410 0 -462 13
-418 -125 -418 -138 0 -125 -44 -125 418 0 296 -3 401 -12 410 -8 8 -55 12
-147 12 -167 0 -171 3 -171 101 0 48 5 72 16 83 14 14 67 16 441 16 383 0 428
-2 445 -17z m496 5 c17 -17 17 -999 0 -1016 -19 -19 -202 -16 -222 4 -14 14
-16 73 -16 504 0 431 2 490 16 504 20 20 203 23 222 4z m2275 0 c7 -7 25 -42
41 -78 16 -36 37 -83 47 -105 23 -50 260 -593 307 -700 19 -44 36 -90 39 -102
8 -34 -25 -44 -139 -41 l-103 3 -25 50 c-14 28 -35 74 -47 103 l-22 52 -220 0
-221 0 -20 -40 c-11 -21 -29 -63 -40 -92 -12 -29 -28 -59 -37 -65 -21 -16
-196 -18 -224 -3 -23 13 -24 42 -5 78 8 15 60 131 115 257 195 451 292 669
303 682 15 18 234 19 251 1z m-1038 -1187 c625 -42 1420 -113 1434 -127 3 -4
-43 -4 -104 0 -204 12 -877 35 -1325 46 -772 18 -1673 -11 -2315 -75 -82 -9
-161 -18 -175 -20 -70 -14 -979 -99 -1270 -120 -537 -38 -1145 -44 -1500 -15
-311 25 -1089 122 -1133 141 -17 7 -12 8 23 4 801 -90 1684 -82 2714 25 602
63 1352 122 1906 149 238 12 1534 6 1745 -8z m-2521 -545 c14 -9 30 -25 37
-37 14 -27 4 -82 -20 -103 -18 -16 -17 -18 17 -52 30 -30 34 -39 29 -71 -12
-74 -62 -96 -207 -91 l-95 3 -3 175 c-1 96 0 180 2 186 7 19 209 11 240 -10z
m186 -116 c7 -176 20 -200 114 -200 33 0 52 6 73 24 28 24 28 26 33 168 5 135
6 143 25 143 19 0 20 -7 20 -142 0 -127 -2 -144 -21 -169 -36 -49 -66 -64
-125 -66 -73 -2 -116 23 -146 82 -20 39 -23 60 -23 165 0 67 3 125 7 129 4 4
14 5 23 4 12 -3 16 -27 20 -138z m638 118 c3 -16 -7 -18 -112 -18 l-116 0 0
-65 0 -64 103 -3 c83 -2 102 -6 102 -18 0 -12 -19 -16 -102 -18 l-103 -3 0
-64 0 -65 115 0 c108 0 115 -1 115 -20 0 -19 -7 -20 -135 -20 l-135 0 0 190 0
189 132 -2 c118 -2 133 -4 136 -19z m242 -127 l115 -144 5 144 c4 127 7 144
23 147 16 3 17 -11 17 -187 0 -175 -1 -191 -17 -191 -10 1 -36 24 -59 53 -22
29 -74 95 -115 147 l-74 94 -3 -148 c-3 -146 -3 -147 -25 -144 -22 3 -22 6
-25 178 -1 96 0 180 3 188 11 30 45 0 155 -137z m544 125 c50 -32 80 -84 84
-147 6 -75 -1 -101 -40 -144 -57 -65 -132 -87 -208 -60 -55 19 -87 48 -111
100 -44 95 -6 209 83 255 35 17 55 20 105 17 35 -3 74 -12 87 -21z m370 10
c40 -16 53 -33 37 -49 -8 -8 -20 -6 -46 6 -62 29 -122 19 -145 -24 -20 -37 10
-66 95 -90 91 -27 120 -53 120 -111 0 -33 -6 -45 -33 -69 -28 -25 -40 -29 -92
-29 -95 0 -169 40 -140 75 7 9 16 12 19 7 14 -21 73 -42 119 -42 58 0 85 23
80 66 -3 33 -25 46 -112 69 -74 20 -106 51 -106 102 0 43 23 77 60 92 37 14
106 13 144 -3z m573 -175 c46 -101 83 -185 83 -187 0 -2 -11 -4 -24 -4 -19 0
-27 10 -44 50 l-21 50 -101 0 -101 0 -22 -50 c-17 -38 -27 -50 -44 -50 -28 0
-28 0 2 60 14 27 34 71 44 97 11 27 38 88 60 136 60 130 65 127 168 -102z
m203 -1 c0 -183 -1 -190 -20 -190 -19 0 -20 7 -20 190 0 183 1 190 20 190 19
0 20 -7 20 -190z m314 180 c59 -13 91 -50 91 -106 0 -39 -5 -50 -33 -75 -18
-16 -39 -29 -47 -29 -22 0 -20 -4 35 -77 28 -36 50 -70 50 -74 0 -5 -11 -9
-24 -9 -21 0 -44 26 -117 133 -3 4 -29 9 -57 11 -60 2 -65 -4 -60 -86 3 -48 1
-53 -19 -56 l-23 -3 0 190 0 191 83 0 c45 0 100 -5 121 -10z m454 -12 c3 -15
-9 -18 -110 -20 l-113 -3 -3 -62 -3 -62 103 -3 c84 -2 103 -6 103 -18 0 -12
-19 -16 -102 -18 l-103 -3 0 -64 0 -65 115 0 c109 0 115 -1 115 -20 0 -20 -5
-20 -137 -18 l-136 3 1 185 c1 102 1 186 2 188 0 2 60 2 132 0 116 -3 133 -5
136 -20z m290 2 c37 -17 42 -22 33 -39 -10 -19 -11 -19 -48 0 -74 38 -153 16
-153 -41 0 -36 25 -55 94 -70 93 -21 126 -49 126 -110 0 -67 -45 -100 -136
-100 -43 0 -68 6 -101 25 -68 41 -50 71 22 35 76 -39 175 -17 175 40 0 20 -44
60 -66 60 -25 0 -109 32 -128 49 -29 26 -38 60 -25 98 22 69 118 93 207 53z"/>
<path d="M2141 6128 c-5 -13 -23 -58 -41 -100 -43 -102 -37 -110 73 -106 104
4 109 11 72 104 -15 38 -34 81 -41 97 -18 33 -51 36 -63 5z"/>
<path d="M3093 6269 c-9 -9 -13 -49 -13 -126 0 -133 0 -133 112 -133 102 1
157 15 195 52 61 59 50 143 -23 189 -34 21 -54 24 -149 27 -80 3 -113 0 -122
-9z"/>
<path d="M6566 6264 c-13 -12 -16 -38 -16 -117 0 -56 5 -109 10 -117 14 -23
223 -21 267 3 49 26 73 63 73 114 0 38 -6 51 -33 78 -42 42 -89 55 -199 55
-65 0 -90 -4 -102 -16z"/>
<path d="M8176 6059 c-21 -51 -36 -101 -34 -113 3 -20 9 -21 93 -21 l90 0 -1
35 c-1 19 -17 70 -37 113 -50 107 -64 105 -111 -14z"/>
<path d="M2720 4773 c-36 -80 -70 -174 -70 -193 0 -25 19 -30 119 -30 88 0
111 8 111 40 0 8 -20 63 -44 120 -38 90 -48 105 -69 108 -22 3 -29 -4 -47 -45z"/>
<path d="M8174 4808 c-15 -24 -94 -213 -94 -225 0 -23 38 -33 124 -33 64 0 88
4 100 16 9 8 16 18 16 22 0 4 -22 57 -48 117 -37 85 -53 111 -69 113 -12 2
-25 -3 -29 -10z"/>
<path d="M4570 3355 l0 -65 75 0 c82 0 115 18 115 63 0 47 -38 67 -131 67
l-59 0 0 -65z"/>
<path d="M4570 3185 l0 -65 75 0 c100 0 135 17 135 65 0 48 -35 65 -135 65
l-75 0 0 -65z"/>
<path d="M6220 3412 c-82 -36 -114 -136 -71 -220 46 -89 175 -98 240 -16 72
91 -1 245 -115 243 -22 0 -46 -3 -54 -7z"/>
<path d="M7170 3319 c-19 -45 -36 -86 -38 -90 -2 -5 33 -9 77 -9 45 0 81 2 81
4 0 7 -79 176 -82 176 -2 0 -19 -37 -38 -81z"/>
<path d="M7678 3408 c-3 -7 -4 -40 -4 -73 l1 -60 82 -3 c73 -2 84 -1 102 19
24 26 27 67 8 93 -23 31 -180 51 -189 24z"/>
</g>
</svg>
